<svg width="165" height="44" viewBox="0 0 165 44" fill="none" xmlns="http://www.w3.org/2000/svg">
<path d="M54.0469 40.7341L57.394 29.8868H59.6875L63.0347 40.7341H61.6865L60.8497 37.9913H56.2318L55.395 40.7341H54.0469ZM56.5573 36.8136H60.5088L58.6492 30.6771H58.4323L56.5573 36.8136Z" fill="#877DBA"/>
<path d="M68.9679 40.951C68.2344 40.951 67.5732 40.7961 66.9844 40.4862C66.4058 40.1659 65.9461 39.7114 65.6052 39.1225C65.2746 38.5336 65.1093 37.8363 65.1093 37.0305V36.8601C65.1093 36.0439 65.2746 35.3466 65.6052 34.7681C65.9461 34.1792 66.4058 33.7298 66.9844 33.4199C67.5732 33.0997 68.2344 32.9395 68.9679 32.9395C69.691 32.9395 70.3057 33.0738 70.8119 33.3424C71.3285 33.611 71.7314 33.9674 72.0206 34.4117C72.3202 34.8559 72.5113 35.3311 72.594 35.8373L71.4008 36.0852C71.3491 35.7133 71.2251 35.3724 71.0289 35.0625C70.8429 34.7526 70.5795 34.5046 70.2386 34.3187C69.8976 34.1327 69.4792 34.0398 68.9834 34.0398C68.4772 34.0398 68.0226 34.1534 67.6197 34.3807C67.2271 34.6079 66.912 34.9334 66.6744 35.3569C66.4472 35.7805 66.3335 36.2867 66.3335 36.8756V37.015C66.3335 37.6039 66.4472 38.1101 66.6744 38.5336C66.912 38.9572 67.2271 39.2826 67.6197 39.5099C68.0226 39.7372 68.4772 39.8508 68.9834 39.8508C69.7375 39.8508 70.3109 39.6545 70.7034 39.262C71.1063 38.8694 71.3543 38.3838 71.4473 37.8053L72.656 38.0688C72.5423 38.5646 72.3357 39.0347 72.0361 39.4789C71.7365 39.9231 71.3285 40.2795 70.8119 40.5481C70.3057 40.8167 69.691 40.951 68.9679 40.951Z" fill="#877DBA"/>
<path d="M77.8418 40.951C77.315 40.951 76.8346 40.8581 76.4007 40.6721C75.9668 40.4862 75.6259 40.2176 75.378 39.8663C75.13 39.5151 75.006 39.0863 75.006 38.5801C75.006 38.0636 75.13 37.64 75.378 37.3094C75.6259 36.9685 75.9668 36.7154 76.4007 36.5501C76.8346 36.3745 77.3201 36.2867 77.8573 36.2867H80.4142V35.7288C80.4142 35.1916 80.2541 34.7681 79.9338 34.4581C79.6239 34.1482 79.159 33.9933 78.5392 33.9933C77.9297 33.9933 77.4544 34.1431 77.1135 34.4427C76.7726 34.7319 76.5402 35.1245 76.4162 35.6204L75.2695 35.2485C75.3935 34.8249 75.5897 34.4427 75.8583 34.1017C76.1269 33.7505 76.4834 33.4716 76.9276 33.2649C77.3821 33.048 77.9245 32.9395 78.5547 32.9395C79.5258 32.9395 80.2799 33.1926 80.8171 33.6988C81.3543 34.1947 81.6229 34.8972 81.6229 35.8063V39.231C81.6229 39.5409 81.7675 39.6959 82.0568 39.6959H82.7541V40.7341H81.6849C81.344 40.7341 81.0702 40.6411 80.8636 40.4552C80.657 40.2589 80.5537 40.0006 80.5537 39.6804V39.6029H80.3677C80.2541 39.7992 80.0991 40.0058 79.9028 40.2227C79.7169 40.4293 79.4586 40.5998 79.128 40.7341C78.7974 40.8787 78.3687 40.951 77.8418 40.951ZM77.9813 39.8973C78.7045 39.8973 79.2882 39.6855 79.7324 39.262C80.1869 38.8281 80.4142 38.2237 80.4142 37.4489V37.2785H77.9038C77.4183 37.2785 77.0154 37.3869 76.6951 37.6039C76.3852 37.8105 76.2302 38.1256 76.2302 38.5491C76.2302 38.9727 76.3904 39.3033 76.7106 39.5409C77.0412 39.7785 77.4648 39.8973 77.9813 39.8973Z" fill="#877DBA"/>
<path d="M88.2014 40.951C87.5506 40.951 86.9514 40.7961 86.4038 40.4862C85.8563 40.1762 85.4224 39.7268 85.1022 39.138C84.7819 38.5491 84.6218 37.8518 84.6218 37.046V36.8446C84.6218 36.0388 84.7819 35.3466 85.1022 34.7681C85.4224 34.1792 85.8511 33.7298 86.3883 33.4199C86.9359 33.0997 87.5402 32.9395 88.2014 32.9395C88.7283 32.9395 89.1725 33.0118 89.5341 33.1565C89.906 33.2908 90.2056 33.4664 90.4328 33.6833C90.6601 33.89 90.8357 34.1121 90.9597 34.3497H91.1767V29.8868H92.4009V40.7341H91.2077V39.4789H90.9907C90.7841 39.8611 90.4638 40.2021 90.0299 40.5017C89.5961 40.8012 88.9865 40.951 88.2014 40.951ZM88.5268 39.8663C89.312 39.8663 89.9473 39.6184 90.4328 39.1225C90.9287 38.6163 91.1767 37.9138 91.1767 37.015V36.8756C91.1767 35.9768 90.9287 35.2794 90.4328 34.7836C89.9473 34.2774 89.312 34.0243 88.5268 34.0243C87.752 34.0243 87.1115 34.2774 86.6053 34.7836C86.1094 35.2794 85.8615 35.9768 85.8615 36.8756V37.015C85.8615 37.9138 86.1094 38.6163 86.6053 39.1225C87.1115 39.6184 87.752 39.8663 88.5268 39.8663Z" fill="#877DBA"/>
<path d="M99.2123 40.951C98.4478 40.951 97.7763 40.7909 97.1978 40.4707C96.6193 40.1401 96.1699 39.6804 95.8496 39.0915C95.5294 38.5027 95.3692 37.8208 95.3692 37.046V36.8601C95.3692 36.0749 95.5294 35.3879 95.8496 34.7991C96.1699 34.2102 96.6141 33.7557 97.1823 33.4354C97.7505 33.1048 98.4013 32.9395 99.1348 32.9395C99.8476 32.9395 100.478 33.0945 101.025 33.4044C101.573 33.704 102.002 34.1379 102.312 34.7061C102.621 35.2743 102.776 35.9406 102.776 36.7051V37.263H96.5934C96.6244 38.0791 96.8878 38.7196 97.3837 39.1845C97.8796 39.639 98.4995 39.8663 99.2433 39.8663C99.8941 39.8663 100.395 39.7165 100.746 39.4169C101.098 39.1173 101.366 38.7609 101.552 38.3477L102.606 38.8591C102.451 39.1793 102.234 39.4996 101.955 39.8198C101.686 40.1401 101.33 40.4087 100.886 40.6256C100.452 40.8426 99.8941 40.951 99.2123 40.951ZM96.6089 36.2557H101.537C101.495 35.5532 101.253 35.0057 100.808 34.6131C100.374 34.2205 99.8166 34.0243 99.1348 34.0243C98.4426 34.0243 97.8744 34.2205 97.4302 34.6131C96.986 35.0057 96.7122 35.5532 96.6089 36.2557Z" fill="#877DBA"/>
<path d="M105.687 40.7341V33.1565H106.88V34.1017H107.097C107.241 33.8331 107.479 33.5852 107.81 33.3579C108.14 33.1306 108.605 33.017 109.204 33.017C109.793 33.017 110.268 33.1461 110.63 33.4044C111.002 33.6627 111.27 33.9778 111.436 34.3497H111.653C111.828 33.9778 112.092 33.6627 112.443 33.4044C112.804 33.1461 113.305 33.017 113.946 33.017C114.452 33.017 114.896 33.1203 115.279 33.3269C115.661 33.5335 115.96 33.8331 116.177 34.2257C116.405 34.6079 116.518 35.0677 116.518 35.6049V40.7341H115.294V35.7133C115.294 35.2071 115.144 34.8094 114.845 34.5201C114.556 34.2205 114.147 34.0707 113.621 34.0707C113.063 34.0707 112.603 34.2515 112.241 34.6131C111.89 34.9747 111.715 35.4964 111.715 36.1782V40.7341H110.49V35.7133C110.49 35.2071 110.341 34.8094 110.041 34.5201C109.752 34.2205 109.344 34.0707 108.817 34.0707C108.259 34.0707 107.799 34.2515 107.438 34.6131C107.086 34.9747 106.911 35.4964 106.911 36.1782V40.7341H105.687Z" fill="#877DBA"/>
<path d="M120.587 43.8333V42.7486H124.926C125.225 42.7486 125.375 42.5936 125.375 42.2837V39.5254H125.158C125.055 39.7423 124.895 39.9593 124.678 40.1762C124.471 40.3829 124.197 40.5533 123.856 40.6876C123.515 40.8116 123.087 40.8736 122.57 40.8736C122.023 40.8736 121.516 40.7548 121.052 40.5172C120.597 40.2795 120.235 39.9283 119.967 39.4634C119.709 38.9985 119.579 38.4303 119.579 37.7588V33.1565H120.804V37.6659C120.804 38.4097 120.99 38.952 121.362 39.293C121.744 39.6339 122.255 39.8043 122.896 39.8043C123.619 39.8043 124.213 39.5667 124.678 39.0915C125.143 38.6163 125.375 37.9086 125.375 36.9685V33.1565H126.599V42.5007C126.599 42.9139 126.48 43.2393 126.243 43.4769C126.016 43.7145 125.68 43.8333 125.236 43.8333H120.587Z" fill="#877DBA"/>
<path d="M68.4563 19.0503C67.6428 20.0326 66.6835 20.7847 65.5784 21.3065C64.4733 21.813 63.2377 22.0663 61.8717 22.0663C60.6438 22.0663 59.5004 21.8437 58.4413 21.3986C57.3976 20.9535 56.492 20.3472 55.7246 19.5798C54.9572 18.8124 54.3509 17.9068 53.9058 16.8631C53.4607 15.804 53.2381 14.6683 53.2381 13.4557C53.2381 12.2432 53.4607 11.1151 53.9058 10.0713C54.3509 9.0123 54.9572 8.09906 55.7246 7.33163C56.492 6.5642 57.3976 5.95793 58.4413 5.51282C59.5004 5.06771 60.6438 4.84515 61.8717 4.84515C63.1917 4.84515 64.3505 5.07538 65.3482 5.53584C66.3612 5.9963 67.2591 6.66396 68.0418 7.53883L65.8547 9.65694C65.3635 9.08904 64.7956 8.63626 64.151 8.29859C63.5217 7.96092 62.7696 7.79208 61.8947 7.79208C61.1273 7.79208 60.4059 7.93022 59.7306 8.2065C59.0552 8.46742 58.4643 8.84346 57.9578 9.33462C57.4667 9.82577 57.0753 10.4244 56.7837 11.1304C56.492 11.8211 56.3462 12.5962 56.3462 13.4557C56.3462 14.3152 56.492 15.098 56.7837 15.804C57.0753 16.4947 57.4667 17.0857 57.9578 17.5768C58.4643 18.068 59.0552 18.4517 59.7306 18.728C60.4059 18.9889 61.1273 19.1193 61.8947 19.1193C62.8156 19.1193 63.6291 18.9352 64.3352 18.5668C65.0565 18.1831 65.6935 17.6459 66.2461 16.9552L68.4563 19.0503Z" fill="black"/>
<path d="M78.6978 20.5007H78.5137C78.1606 20.9305 77.7309 21.2988 77.2244 21.6058C76.7332 21.9128 76.0963 22.0663 75.3135 22.0663C74.7302 22.0663 74.1777 21.9665 73.6558 21.767C73.1493 21.5828 72.7042 21.3219 72.3205 20.9842C71.9368 20.6465 71.6375 20.2398 71.4226 19.764C71.2077 19.2882 71.1003 18.7663 71.1003 18.1984C71.1003 17.6152 71.2154 17.0933 71.4456 16.6329C71.6759 16.1571 71.9982 15.7503 72.4126 15.4127C72.827 15.075 73.3105 14.8217 73.863 14.6529C74.4309 14.4687 75.0449 14.3766 75.7049 14.3766C76.4416 14.3766 77.0479 14.438 77.5237 14.5608C77.9995 14.6683 78.3909 14.7834 78.6978 14.9062V14.5608C78.6978 13.9622 78.4599 13.4711 77.9841 13.0873C77.5083 12.6883 76.9174 12.4888 76.2114 12.4888C75.1677 12.4888 74.2851 12.9262 73.5637 13.8011L71.3766 12.3046C72.5737 10.8004 74.2084 10.0483 76.2804 10.0483C78.0302 10.0483 79.3655 10.4627 80.2864 11.2916C81.2073 12.105 81.6678 13.3176 81.6678 14.9292V21.6979H78.6978V20.5007ZM78.6978 17.1164C78.3448 16.9475 77.9765 16.8171 77.5927 16.725C77.2244 16.6175 76.8176 16.5638 76.3725 16.5638C75.6511 16.5638 75.0909 16.725 74.6919 17.0473C74.3081 17.3543 74.1163 17.738 74.1163 18.1984C74.1163 18.6589 74.3005 19.0272 74.6688 19.3035C75.0525 19.5798 75.49 19.7179 75.9811 19.7179C76.3802 19.7179 76.7486 19.6489 77.0862 19.5107C77.4239 19.3572 77.7079 19.1654 77.9381 18.9352C78.1837 18.6896 78.3678 18.4133 78.4906 18.1063C78.6288 17.784 78.6978 17.454 78.6978 17.1164Z" fill="black"/>
<path d="M85.6774 10.4167H88.5092V11.8902H88.6934C89.0464 11.3376 89.5222 10.8925 90.1208 10.5548C90.7347 10.2172 91.4101 10.0483 92.1468 10.0483C93.0063 10.0483 93.7277 10.2479 94.3109 10.6469C94.8942 11.046 95.3086 11.5371 95.5542 12.1204C95.9072 11.5525 96.406 11.069 97.0507 10.6699C97.6953 10.2555 98.4781 10.0483 99.399 10.0483C100.09 10.0483 100.688 10.1634 101.195 10.3937C101.701 10.6085 102.116 10.9155 102.438 11.3146C102.776 11.7136 103.029 12.1971 103.198 12.765C103.367 13.3176 103.451 13.9238 103.451 14.5838V21.6979H100.435V15.1364C100.435 13.6015 99.8057 12.8341 98.5472 12.8341C98.1481 12.8341 97.7951 12.9262 97.4881 13.1104C97.1811 13.2792 96.9202 13.5171 96.7053 13.8241C96.5058 14.1157 96.3446 14.4687 96.2218 14.8831C96.1144 15.2975 96.0607 15.7427 96.0607 16.2185V21.6979H93.0447V15.1364C93.0447 13.6015 92.3847 12.8341 91.0647 12.8341C90.681 12.8341 90.3433 12.9262 90.0517 13.1104C89.7601 13.2792 89.5145 13.5171 89.315 13.8241C89.1155 14.1157 88.962 14.4687 88.8545 14.8831C88.7471 15.2975 88.6934 15.7427 88.6934 16.2185V21.6979H85.6774V10.4167Z" fill="black"/>
<path d="M107.454 10.4167H110.286V11.775H110.47C110.747 11.2992 111.176 10.8925 111.76 10.5548C112.343 10.2172 113.064 10.0483 113.924 10.0483C114.645 10.0483 115.328 10.2018 115.973 10.5088C116.633 10.8004 117.208 11.2148 117.699 11.752C118.206 12.2739 118.605 12.9032 118.897 13.6399C119.188 14.3766 119.334 15.1824 119.334 16.0573C119.334 16.9322 119.188 17.738 118.897 18.4747C118.605 19.2114 118.206 19.8484 117.699 20.3856C117.208 20.9075 116.633 21.3219 115.973 21.6288C115.328 21.9205 114.645 22.0663 113.924 22.0663C113.064 22.0663 112.343 21.8974 111.76 21.5598C111.176 21.2221 110.747 20.8154 110.47 20.3396H110.286L110.47 21.9512V26.6708H107.454V10.4167ZM113.302 19.2805C113.701 19.2805 114.077 19.2038 114.43 19.0503C114.799 18.8968 115.121 18.6819 115.397 18.4056C115.673 18.1294 115.896 17.7917 116.065 17.3926C116.234 16.9936 116.318 16.5485 116.318 16.0573C116.318 15.5661 116.234 15.121 116.065 14.722C115.896 14.3229 115.673 13.9852 115.397 13.709C115.121 13.4327 114.799 13.2178 114.43 13.0643C114.077 12.9108 113.701 12.8341 113.302 12.8341C112.903 12.8341 112.519 12.9108 112.151 13.0643C111.798 13.2025 111.483 13.4097 111.207 13.6859C110.931 13.9622 110.708 14.2999 110.539 14.6989C110.371 15.098 110.286 15.5508 110.286 16.0573C110.286 16.5638 110.371 17.0166 110.539 17.4156C110.708 17.8147 110.931 18.1524 111.207 18.4287C111.483 18.7049 111.798 18.9198 112.151 19.0733C112.519 19.2114 112.903 19.2805 113.302 19.2805Z" fill="black"/>
<path d="M123.241 5.21352H126.349V18.751H133.325V21.6979H123.241V5.21352Z" fill="black"/>
<path d="M139.406 21.1454L134.664 10.4167H138.094L140.949 17.2545H141.11L143.85 10.4167H147.211L140.143 26.6708H136.897L139.406 21.1454Z" fill="black"/>
<path d="M158.763 12.9953H154.503V21.6979H151.487V12.9953H149.461V10.4167H151.487V9.31159C151.487 8.62091 151.587 8.01464 151.787 7.49279C152.002 6.95559 152.301 6.51048 152.685 6.15746C153.068 5.78909 153.521 5.51282 154.043 5.32863C154.565 5.1291 155.14 5.02934 155.77 5.02934C156.077 5.02934 156.322 5.04469 156.506 5.07538C156.691 5.10608 156.867 5.15213 157.036 5.21352L156.852 8.04533C156.744 7.99929 156.621 7.96092 156.483 7.93022C156.345 7.89952 156.169 7.88417 155.954 7.88417C155.509 7.88417 155.156 8.02999 154.895 8.32161C154.634 8.61323 154.503 9.0123 154.503 9.5188V10.4167H158.763V6.96326H161.779V10.4167H164.541V12.9953H161.779V17.3696C161.779 17.6305 161.802 17.8761 161.848 18.1063C161.909 18.3212 162.017 18.5054 162.17 18.6589C162.385 18.9045 162.692 19.0272 163.091 19.0272C163.352 19.0272 163.559 19.0042 163.713 18.9582C163.866 18.8968 164.012 18.82 164.15 18.728L165.002 21.3756C164.649 21.5444 164.265 21.6672 163.851 21.7439C163.452 21.836 163.006 21.8821 162.515 21.8821C161.947 21.8821 161.433 21.7977 160.973 21.6288C160.528 21.4447 160.152 21.1991 159.845 20.8921C159.123 20.2014 158.763 19.2191 158.763 17.9452V12.9953Z" fill="black"/>
<path d="M21.3659 0.0174278C26.5128 -0.00248969 31.6623 0.0273865 36.8092 0C35.2204 1.50128 33.7161 3.0897 32.1571 4.61837C31.5727 5.24079 30.9188 5.78852 30.3295 6.40596C29.0739 7.6757 27.7983 8.92304 26.5551 10.2002C21.4305 10.1729 16.306 10.2002 11.1839 10.1878C12.069 9.37865 12.8896 8.49979 13.7449 7.66325C16.2786 5.11133 18.8372 2.57931 21.3659 0.0174278Z" fill="#432B85"/>
<path d="M11.1437 10.7373C16.1117 10.7323 21.0796 10.7572 26.045 10.7249C24.4189 12.2884 22.8499 13.9117 21.2462 15.5001C19.2993 17.4495 17.3524 19.3964 15.4055 21.3459C15.229 21.3234 15.0524 21.311 14.8784 21.3135C9.92538 21.321 4.97237 21.3085 0.0218506 21.321C1.6082 19.73 3.19456 18.1391 4.78589 16.5532C5.45225 15.8337 6.21062 15.2038 6.89191 14.4992C8.09286 13.2892 9.30376 12.0892 10.5022 10.8767C10.6539 10.6701 10.9274 10.7572 11.1437 10.7373Z" fill="#432B85"/>
<path d="M0 22.0253C5.0649 22.0427 10.1298 22.0253 15.1972 22.0327C15.3563 22.0103 15.4757 22.1149 15.5776 22.2195C17.2933 23.9349 19.0064 25.6527 20.7171 27.3731C22.0647 28.6155 23.3154 29.9599 24.6283 31.2371C25.0783 31.7052 25.5607 32.1434 25.9933 32.6288C23.4895 32.579 20.9831 32.6214 18.4793 32.6064C15.8511 32.6164 13.2254 32.5915 10.5972 32.6214C7.06151 29.0935 3.53822 25.5507 0 22.0253Z" fill="#432B85"/>
<path d="M11.1474 33.1562C16.2745 33.1512 21.404 33.1462 26.5286 33.1587C27.3367 33.8807 28.0702 34.6898 28.8485 35.4467C31.4891 38.0733 34.0974 40.7348 36.7603 43.344C31.688 43.3241 26.6156 43.344 21.5458 43.3365C21.501 43.3266 21.4115 43.3116 21.3667 43.3017C20.4244 42.3705 19.492 41.4319 18.5595 40.4908C16.2969 38.3771 14.1933 36.0891 11.9356 33.9703C11.6746 33.699 11.401 33.435 11.1474 33.1562Z" fill="#432B85"/>
<path d="M15.9853 21.6417C19.5036 18.0939 23.0493 14.576 26.5751 11.0381C30.1232 14.5635 33.6366 18.1238 37.1897 21.6442C36.6452 22.1098 36.1827 22.655 35.6581 23.1405C35.2304 23.626 34.7082 24.0144 34.2731 24.4949C31.7146 27.0618 29.1436 29.6212 26.5776 32.1806C23.6684 29.2676 20.7493 26.3647 17.8452 23.4443C17.2335 22.8368 16.6243 22.2243 15.9853 21.6417Z" fill="#8368CC"/>
</svg>
